<?xml version="1.0" encoding="UTF-8"?>
<!-- Created with Inkscape (http://www.inkscape.org/) -->
<svg width="49.278mm" height="46.92mm" version="1.1" viewBox="0 0 49.278 46.92" xmlns="http://www.w3.org/2000/svg">
  <g transform="translate(-35.737 -110.86)" stroke-width=".26458">
    <path d="m68.755 145.21c-6.64-7.3403-9.4222-10.7-9.0538-10.933 0.20636-0.13062 0.50557-0.23931 0.66491-0.24154 0.15934-2e-3 1.0166-0.47385 1.905-1.0481 2.4882-1.6082 3.4783-3.5169 3.1073-5.9906-0.38082-2.5395-2.4043-3.7838-6.5225-4.0107l-2.6106-0.14385-0.06884 12.143-0.06884 12.143-3.3073 0.1576v-26.98l1.2325-0.18482c0.67788-0.10166 2.7317-0.11937 4.5641-0.0394 5.4443 0.23773 8.1603 1.4189 9.6883 4.2133 0.63886 1.1684 0.76708 1.7116 0.76818 3.2545 0.0018 2.5063-0.70315 3.9057-3.0297 6.0145l-1.8042 1.6353 1.0079 1.2022c0.55433 0.66122 2.6285 2.9197 4.6092 5.0188 1.9807 2.0991 3.6013 3.9005 3.6013 4.003 0 0.19169-2.2387 2.1023-2.4633 2.1023-0.0689 0-1.0677-1.0418-2.2195-2.3151z" fill="#000000" />
    <path d="m58.095 157.64c-2.453-0.30892-5.725-1.4708-8.5683-3.0425l-1.6983-0.9388-4.8054-4.9027-1.0788-1.8102c-1.0529-1.7667-1.8161-3.53-1.528-3.53 0.07911 0 0.45987 0.22469 0.84613 0.4993s1.1975 0.64739 1.8026 0.8284l1.1003 0.3291 0.54318 0.73468 0.54318 0.73469-0.36965 0.14184c-0.20331 0.078-0.42794 0.0265-0.49919-0.11448-0.07125-0.14099-0.09938-0.10453-0.06251 0.081 0.03686 0.18553 0.35152 0.37878 0.69923 0.42944 0.55701 0.0811 1.255 0.66445 1.7969 1.5016 0.29468 0.45523 3.0195 2.6591 4.1859 3.3856 2.781 1.7322 6.6853 2.8105 10.214 2.8207 1.9612 6e-3 5.9938-0.797 7.2224-1.4377 0.42817-0.22327 0.93582-0.40669 1.1281-0.40759 0.19229-7.9e-4 0.52822-0.18022 0.7465-0.3985 0.4552-0.4552 0.88824-0.5197 0.88824-0.13229 0 0.14552 0.20836 0.26276 0.46303 0.26053l0.46302-4e-3 -0.39688-0.25648-0.39687-0.25648 0.47132-4e-3c0.25923-2e-3 0.54335-0.21241 0.63138-0.46707 0.088-0.25466 1.0867-1.4155 2.2194-2.5797 1.9336-1.9874 3.5628-4.3548 3.3756-4.9049-0.0457-0.13436-0.72003 0.0511-1.4985 0.41207-0.77843 0.36099-1.5067 0.65635-1.6184 0.65635-0.11168 0-0.45931-0.61665-0.77252-1.3703l-0.56949-1.3703 0.67154-0.42446 0.29375 0.39194c0.38607 0.5151 0.58215 0.49632 0.53675-0.0514l-0.0367-0.44338 1.1906-0.73611c3.0389-1.425 4.9726-3.8994 6.6245-0.34008 0.57661 1.2424 1.0484 2.3757 1.0484 2.5185s0.25055 0.59852 0.55678 1.0127l0.55677 0.75307-0.17746 0.80794-0.17745 0.80794-0.90848 0.53602-0.90849 0.53602v-0.37295c0-0.20513-0.20836-0.52853-0.46302-0.71869-0.62782-0.46878-1.228-1.6839-1.0078-2.0403 0.0985-0.1594 0.1289-0.28981 0.0675-0.28981s-0.49046 0.7696-0.95353 1.7102l-0.84194 1.7102-0.78188 0.55675c-0.43003 0.30621-0.78188 0.73097-0.78188 0.94391s-0.20836 0.46482-0.46302 0.55974c-0.68131 0.25393-2.1072 1.7372-2.2186 2.308-0.11857 0.60723-2.459 2.2963-4.5944 3.3158-0.87313 0.41684-2.6591 1.0586-3.9687 1.4262l-2.3812 0.66832-2.4029 0.0812c-1.3216 0.0446-3.1019-7e-3 -3.9562-0.11446zm15.588-6.1681 0.15757-0.41061-0.26155 0.16165c-0.14386 0.0889-0.26156 0.27368-0.26156 0.41061 0 0.38059 0.18965 0.29672 0.36554-0.16165zm-30.528-4.0873c0-0.14552-0.12609-0.26458-0.2802-0.26458-0.15411 0-0.20661 0.11906-0.11668 0.26458 0.08994 0.14553 0.21602 0.26459 0.2802 0.26459 0.06417 0 0.11668-0.11906 0.11668-0.26459zm40.099-2.8874c-0.30408-0.49202-0.63344-0.31547-0.48321 0.25902l0.14295 0.54665 0.25902-0.25902c0.14246-0.14246 0.17902-0.38845 0.0812-0.54665zm-45.007-15.166c-0.41924-1.0572-1.1555-2.6876-1.6361-3.623l-0.87386-1.7008 0.58013-1.7578h0.37636c0.207 0 0.63515-0.2588 0.95146-0.5751l0.5751-0.5751-0.17568 0.45781-0.17568 0.4578 0.62214 0.58032c0.5883 0.54875 1.1274 1.6675 1.0127 2.1017-0.02883 0.10914 0.03765 0.19844 0.14774 0.19844 0.11009 0 0.34296-0.45754 0.51749-1.0168 0.42131-1.3499 1.633-3.1712 2.2374-3.363 0.26652-0.0846 0.48458-0.3029 0.48458-0.48513 0-0.38355 1.2121-1.5077 1.4111-1.3087 0.07343 0.0734 0.28102-0.14212 0.46131-0.479s0.4876-0.77231 0.6829-0.9676c0.1953-0.1953 0.35509-0.51105 0.35509-0.70166 0-0.3244 1.3024-1.4589 2.5094-2.1858 1.7159-1.0334 5.3015-2.5778 6.9939-3.0124l1.9626-0.50397 6.6581-0.02 1.5294 0.40582c0.84118 0.22321 1.9973 0.64452 2.5691 0.93625 0.57185 0.29174 1.2367 0.53043 1.4774 0.53043 0.8173 0 4.546 2.441 6.103 3.9954 2.1265 2.1229 3.0304 3.1238 3.7571 4.16 0.63358 0.90347 1.9654 3.4726 2.4199 4.668l0.25346 0.66665-1.4032-0.79193c-0.77176-0.43556-1.7377-1.0027-1.9591-0.79192h-0.55591l-0.56391-0.79194c-0.55081-0.77354-0.1952-1.7787 0.0579-1.1559l0.28718 0.17749-0.18879-0.30546c-0.10384-0.16801-0.47942-0.30547-0.83463-0.30547s-0.64584-0.11245-0.64584-0.24988c0-0.43686-3.4869-3.7558-4.8786-4.6436-0.73654-0.46985-2.2321-1.2647-3.3235-1.7663l-1.9844-0.91202-4.5987-0.71067-2.3309 0.16521c-2.7859 0.19746-5.099 0.23203-7.1045 1.8116l-1.7071 0.81544-0.81186-0.67378-0.38019 0.50228c-0.2091 0.27625-0.38398 0.69096-0.38861 0.92156-0.0046 0.23061-0.33584 0.71817-0.73602 1.0835-1.7825 1.6271-3.485 3.6439-4.2726 5.0615-0.46977 0.84546-0.81681 1.6486-0.77121 1.7848 0.0456 0.13618 0.77022-0.11443 1.6103-0.55691s1.635-0.73796 1.7666-0.65663c0.13161 0.0813 0.38255 0.59272 0.55765 1.1364 0.1751 0.54368 0.49534 1.0848 0.55173 1.2841l0.23336 0.29562-0.81682 0.6779-0.79163-1.0046 0.07336 0.43675 0.07336 0.43674-1.0286 0.82003c-0.56571 0.45101-1.1281 0.82002-1.2498 0.82002s-1.067 0.41161-2.1007 0.91469c-1.0337 0.50307-2.1926 0.84111-2.3446 1.0623l-0.4651 0.14762zm-0.22772-4.8974c0.40876 0-0.48722 0.17061-0.27971 0.6487l0.20592 0.47443 0.11473-0.48373c0.0631-0.26605-0.16204-0.6394-0.04095-0.6394zm41.648-2.3008c0-0.0642-0.11906-0.19027-0.26458-0.2802-0.14552-0.0899-0.26459-0.0374-0.26459 0.11667 0 0.15411 0.11907 0.2802 0.26459 0.2802s0.26458-0.0525 0.26458-0.11667zm-31.882-4.6458c0.08994-0.14552 0.03743-0.26458-0.11668-0.26458-0.15411 0-0.2802 0.11906-0.2802 0.26458s0.0525 0.26459 0.11668 0.26459c0.06417 0 0.19026-0.11907 0.2802-0.26459z" fill="#fb0400"/>
  </g>
</svg>
